<?xml version="1.0" encoding="utf-8" standalone="no"?>
<!DOCTYPE svg PUBLIC "-//W3C//DTD SVG 1.1//EN"
  "http://www.w3.org/Graphics/SVG/1.1/DTD/svg11.dtd">
<svg xmlns:xlink="http://www.w3.org/1999/xlink" width="1025.374386pt" height="647.529829pt" viewBox="0 0 1025.374386 647.529829" xmlns="http://www.w3.org/2000/svg" version="1.1">
 <metadata>
  <rdf:RDF xmlns:dc="http://purl.org/dc/elements/1.1/" xmlns:cc="http://creativecommons.org/ns#" xmlns:rdf="http://www.w3.org/1999/02/22-rdf-syntax-ns#">
   <cc:Work>
    <dc:type rdf:resource="http://purl.org/dc/dcmitype/StillImage"/>
    <dc:date>2025-08-17T11:12:53.645447</dc:date>
    <dc:format>image/svg+xml</dc:format>
    <dc:creator>
     <cc:Agent>
      <dc:title>Matplotlib v3.8.2, https://matplotlib.org/</dc:title>
     </cc:Agent>
    </dc:creator>
   </cc:Work>
  </rdf:RDF>
 </metadata>
 <defs>
  <style type="text/css">*{stroke-linejoin: round; stroke-linecap: butt}</style>
 </defs>
 <g id="figure_1">
  <g id="patch_1">
   <path d="M 0 647.529829 
L 1025.374386 647.529829 
L 1025.374386 0 
L 0 0 
L 0 647.529829 
z
" style="fill: none"/>
  </g>
  <g id="axes_1">
   <g id="patch_2">
    <path d="M 790.458136 323.807883 
C 790.458136 285.124619 782.838376 246.817501 768.034932 211.078826 
C 753.231488 175.34015 731.532249 142.864943 704.17905 115.511745 
C 676.825852 88.158547 644.350646 66.459308 608.61197 51.655864 
C 572.873294 36.852419 534.566176 29.23266 495.882912 29.23266 
C 457.199648 29.23266 418.89253 36.852419 383.153855 51.655864 
C 347.415179 66.459308 314.939972 88.158547 287.586774 115.511745 
C 260.233576 142.864943 238.534337 175.34015 223.730893 211.078826 
C 208.927448 246.817501 201.307689 285.124619 201.307689 323.807883 
C 201.307689 362.491147 208.927448 400.798265 223.730893 436.536941 
C 238.534337 472.275617 260.233576 504.750823 287.586774 532.104021 
C 314.939972 559.45722 347.415179 581.156459 383.153855 595.959903 
C 418.89253 610.763347 457.199648 618.383107 495.882912 618.383107 
C 534.566176 618.383107 572.873294 610.763347 608.61197 595.959903 
C 644.350646 581.156459 676.825852 559.45722 704.17905 532.104021 
C 731.532249 504.750823 753.231488 472.275617 768.034932 436.536941 
C 782.838376 400.798265 790.458136 362.491147 790.458136 323.807883 
M 495.882912 323.807883 
C 495.882912 323.807883 495.882912 323.807883 495.882912 323.807883 
C 495.882912 323.807883 495.882912 323.807883 495.882912 323.807883 
C 495.882912 323.807883 495.882912 323.807883 495.882912 323.807883 
C 495.882912 323.807883 495.882912 323.807883 495.882912 323.807883 
C 495.882912 323.807883 495.882912 323.807883 495.882912 323.807883 
C 495.882912 323.807883 495.882912 323.807883 495.882912 323.807883 
C 495.882912 323.807883 495.882912 323.807883 495.882912 323.807883 
C 495.882912 323.807883 495.882912 323.807883 495.882912 323.807883 
C 495.882912 323.807883 495.882912 323.807883 495.882912 323.807883 
C 495.882912 323.807883 495.882912 323.807883 495.882912 323.807883 
C 495.882912 323.807883 495.882912 323.807883 495.882912 323.807883 
C 495.882912 323.807883 495.882912 323.807883 495.882912 323.807883 
C 495.882912 323.807883 495.882912 323.807883 495.882912 323.807883 
C 495.882912 323.807883 495.882912 323.807883 495.882912 323.807883 
C 495.882912 323.807883 495.882912 323.807883 495.882912 323.807883 
C 495.882912 323.807883 495.882912 323.807883 495.882912 323.807883 
L 495.882912 323.807883 
z
" style="fill: none; opacity: 0"/>
   </g>
   <g id="matplotlib.axis_1">
    <g id="xtick_1">
     <g id="line2d_1">
      <path d="M 495.882912 323.807883 
L 790.458136 323.807883 
" clip-path="url(#pd0c0349615)" style="fill: none; stroke: #b0b0b0; stroke-width: 0.8; stroke-linecap: square"/>
     </g>
     <g id="text_1">
      <!-- Mathematics and -->
      <g style="fill: #8c564b" transform="translate(804.458136 317.474977) scale(0.22 -0.22)">
       <defs>
        <path id="DejaVuSans-Bold-4d" d="M 588 4666 
L 2119 4666 
L 3181 2169 
L 4250 4666 
L 5778 4666 
L 5778 0 
L 4641 0 
L 4641 3413 
L 3566 897 
L 2803 897 
L 1728 3413 
L 1728 0 
L 588 0 
L 588 4666 
z
" transform="scale(0.015625)"/>
        <path id="DejaVuSans-Bold-61" d="M 2106 1575 
Q 1756 1575 1579 1456 
Q 1403 1338 1403 1106 
Q 1403 894 1545 773 
Q 1688 653 1941 653 
Q 2256 653 2472 879 
Q 2688 1106 2688 1447 
L 2688 1575 
L 2106 1575 
z
M 3816 1997 
L 3816 0 
L 2688 0 
L 2688 519 
Q 2463 200 2181 54 
Q 1900 -91 1497 -91 
Q 953 -91 614 226 
Q 275 544 275 1050 
Q 275 1666 698 1953 
Q 1122 2241 2028 2241 
L 2688 2241 
L 2688 2328 
Q 2688 2594 2478 2717 
Q 2269 2841 1825 2841 
Q 1466 2841 1156 2769 
Q 847 2697 581 2553 
L 581 3406 
Q 941 3494 1303 3539 
Q 1666 3584 2028 3584 
Q 2975 3584 3395 3211 
Q 3816 2838 3816 1997 
z
" transform="scale(0.015625)"/>
        <path id="DejaVuSans-Bold-74" d="M 1759 4494 
L 1759 3500 
L 2913 3500 
L 2913 2700 
L 1759 2700 
L 1759 1216 
Q 1759 972 1856 886 
Q 1953 800 2241 800 
L 2816 800 
L 2816 0 
L 1856 0 
Q 1194 0 917 276 
Q 641 553 641 1216 
L 641 2700 
L 84 2700 
L 84 3500 
L 641 3500 
L 641 4494 
L 1759 4494 
z
" transform="scale(0.015625)"/>
        <path id="DejaVuSans-Bold-68" d="M 4056 2131 
L 4056 0 
L 2931 0 
L 2931 347 
L 2931 1625 
Q 2931 2084 2911 2256 
Q 2891 2428 2841 2509 
Q 2775 2619 2662 2680 
Q 2550 2741 2406 2741 
Q 2056 2741 1856 2470 
Q 1656 2200 1656 1722 
L 1656 0 
L 538 0 
L 538 4863 
L 1656 4863 
L 1656 2988 
Q 1909 3294 2193 3439 
Q 2478 3584 2822 3584 
Q 3428 3584 3742 3212 
Q 4056 2841 4056 2131 
z
" transform="scale(0.015625)"/>
        <path id="DejaVuSans-Bold-65" d="M 4031 1759 
L 4031 1441 
L 1416 1441 
Q 1456 1047 1700 850 
Q 1944 653 2381 653 
Q 2734 653 3104 758 
Q 3475 863 3866 1075 
L 3866 213 
Q 3469 63 3072 -14 
Q 2675 -91 2278 -91 
Q 1328 -91 801 392 
Q 275 875 275 1747 
Q 275 2603 792 3093 
Q 1309 3584 2216 3584 
Q 3041 3584 3536 3087 
Q 4031 2591 4031 1759 
z
M 2881 2131 
Q 2881 2450 2695 2645 
Q 2509 2841 2209 2841 
Q 1884 2841 1681 2658 
Q 1478 2475 1428 2131 
L 2881 2131 
z
" transform="scale(0.015625)"/>
        <path id="DejaVuSans-Bold-6d" d="M 3781 2919 
Q 3994 3244 4286 3414 
Q 4578 3584 4928 3584 
Q 5531 3584 5847 3212 
Q 6163 2841 6163 2131 
L 6163 0 
L 5038 0 
L 5038 1825 
Q 5041 1866 5042 1909 
Q 5044 1953 5044 2034 
Q 5044 2406 4934 2573 
Q 4825 2741 4581 2741 
Q 4263 2741 4089 2478 
Q 3916 2216 3909 1719 
L 3909 0 
L 2784 0 
L 2784 1825 
Q 2784 2406 2684 2573 
Q 2584 2741 2328 2741 
Q 2006 2741 1831 2477 
Q 1656 2213 1656 1722 
L 1656 0 
L 531 0 
L 531 3500 
L 1656 3500 
L 1656 2988 
Q 1863 3284 2130 3434 
Q 2397 3584 2719 3584 
Q 3081 3584 3359 3409 
Q 3638 3234 3781 2919 
z
" transform="scale(0.015625)"/>
        <path id="DejaVuSans-Bold-69" d="M 538 3500 
L 1656 3500 
L 1656 0 
L 538 0 
L 538 3500 
z
M 538 4863 
L 1656 4863 
L 1656 3950 
L 538 3950 
L 538 4863 
z
" transform="scale(0.015625)"/>
        <path id="DejaVuSans-Bold-63" d="M 3366 3391 
L 3366 2478 
Q 3138 2634 2908 2709 
Q 2678 2784 2431 2784 
Q 1963 2784 1702 2511 
Q 1441 2238 1441 1747 
Q 1441 1256 1702 982 
Q 1963 709 2431 709 
Q 2694 709 2930 787 
Q 3166 866 3366 1019 
L 3366 103 
Q 3103 6 2833 -42 
Q 2563 -91 2291 -91 
Q 1344 -91 809 395 
Q 275 881 275 1747 
Q 275 2613 809 3098 
Q 1344 3584 2291 3584 
Q 2566 3584 2833 3536 
Q 3100 3488 3366 3391 
z
" transform="scale(0.015625)"/>
        <path id="DejaVuSans-Bold-73" d="M 3272 3391 
L 3272 2541 
Q 2913 2691 2578 2766 
Q 2244 2841 1947 2841 
Q 1628 2841 1473 2761 
Q 1319 2681 1319 2516 
Q 1319 2381 1436 2309 
Q 1553 2238 1856 2203 
L 2053 2175 
Q 2913 2066 3209 1816 
Q 3506 1566 3506 1031 
Q 3506 472 3093 190 
Q 2681 -91 1863 -91 
Q 1516 -91 1145 -36 
Q 775 19 384 128 
L 384 978 
Q 719 816 1070 734 
Q 1422 653 1784 653 
Q 2113 653 2278 743 
Q 2444 834 2444 1013 
Q 2444 1163 2330 1236 
Q 2216 1309 1875 1350 
L 1678 1375 
Q 931 1469 631 1722 
Q 331 1975 331 2491 
Q 331 3047 712 3315 
Q 1094 3584 1881 3584 
Q 2191 3584 2531 3537 
Q 2872 3491 3272 3391 
z
" transform="scale(0.015625)"/>
        <path id="DejaVuSans-Bold-20" transform="scale(0.015625)"/>
        <path id="DejaVuSans-Bold-6e" d="M 4056 2131 
L 4056 0 
L 2931 0 
L 2931 347 
L 2931 1631 
Q 2931 2084 2911 2256 
Q 2891 2428 2841 2509 
Q 2775 2619 2662 2680 
Q 2550 2741 2406 2741 
Q 2056 2741 1856 2470 
Q 1656 2200 1656 1722 
L 1656 0 
L 538 0 
L 538 3500 
L 1656 3500 
L 1656 2988 
Q 1909 3294 2193 3439 
Q 2478 3584 2822 3584 
Q 3428 3584 3742 3212 
Q 4056 2841 4056 2131 
z
" transform="scale(0.015625)"/>
        <path id="DejaVuSans-Bold-64" d="M 2919 2988 
L 2919 4863 
L 4044 4863 
L 4044 0 
L 2919 0 
L 2919 506 
Q 2688 197 2409 53 
Q 2131 -91 1766 -91 
Q 1119 -91 703 423 
Q 288 938 288 1747 
Q 288 2556 703 3070 
Q 1119 3584 1766 3584 
Q 2128 3584 2408 3439 
Q 2688 3294 2919 2988 
z
M 2181 722 
Q 2541 722 2730 984 
Q 2919 1247 2919 1747 
Q 2919 2247 2730 2509 
Q 2541 2772 2181 2772 
Q 1825 2772 1636 2509 
Q 1447 2247 1447 1747 
Q 1447 1247 1636 984 
Q 1825 722 2181 722 
z
" transform="scale(0.015625)"/>
       </defs>
       <use xlink:href="#DejaVuSans-Bold-4d"/>
       <use xlink:href="#DejaVuSans-Bold-61" x="99.511719"/>
       <use xlink:href="#DejaVuSans-Bold-74" x="166.992188"/>
       <use xlink:href="#DejaVuSans-Bold-68" x="214.794922"/>
       <use xlink:href="#DejaVuSans-Bold-65" x="285.986328"/>
       <use xlink:href="#DejaVuSans-Bold-6d" x="353.808594"/>
       <use xlink:href="#DejaVuSans-Bold-61" x="458.007812"/>
       <use xlink:href="#DejaVuSans-Bold-74" x="525.488281"/>
       <use xlink:href="#DejaVuSans-Bold-69" x="573.291016"/>
       <use xlink:href="#DejaVuSans-Bold-63" x="607.568359"/>
       <use xlink:href="#DejaVuSans-Bold-73" x="666.845703"/>
       <use xlink:href="#DejaVuSans-Bold-20" x="726.367188"/>
       <use xlink:href="#DejaVuSans-Bold-61" x="761.181641"/>
       <use xlink:href="#DejaVuSans-Bold-6e" x="828.662109"/>
       <use xlink:href="#DejaVuSans-Bold-64" x="899.853516"/>
      </g>
      <!-- Logic -->
      <g style="fill: #8c564b" transform="translate(804.458136 342.110165) scale(0.22 -0.22)">
       <defs>
        <path id="DejaVuSans-Bold-4c" d="M 588 4666 
L 1791 4666 
L 1791 909 
L 3903 909 
L 3903 0 
L 588 0 
L 588 4666 
z
" transform="scale(0.015625)"/>
        <path id="DejaVuSans-Bold-6f" d="M 2203 2784 
Q 1831 2784 1636 2517 
Q 1441 2250 1441 1747 
Q 1441 1244 1636 976 
Q 1831 709 2203 709 
Q 2569 709 2762 976 
Q 2956 1244 2956 1747 
Q 2956 2250 2762 2517 
Q 2569 2784 2203 2784 
z
M 2203 3584 
Q 3106 3584 3614 3096 
Q 4122 2609 4122 1747 
Q 4122 884 3614 396 
Q 3106 -91 2203 -91 
Q 1297 -91 786 396 
Q 275 884 275 1747 
Q 275 2609 786 3096 
Q 1297 3584 2203 3584 
z
" transform="scale(0.015625)"/>
        <path id="DejaVuSans-Bold-67" d="M 2919 594 
Q 2688 288 2409 144 
Q 2131 0 1766 0 
Q 1125 0 706 504 
Q 288 1009 288 1791 
Q 288 2575 706 3076 
Q 1125 3578 1766 3578 
Q 2131 3578 2409 3434 
Q 2688 3291 2919 2981 
L 2919 3500 
L 4044 3500 
L 4044 353 
Q 4044 -491 3511 -936 
Q 2978 -1381 1966 -1381 
Q 1638 -1381 1331 -1331 
Q 1025 -1281 716 -1178 
L 716 -306 
Q 1009 -475 1290 -558 
Q 1572 -641 1856 -641 
Q 2406 -641 2662 -400 
Q 2919 -159 2919 353 
L 2919 594 
z
M 2181 2772 
Q 1834 2772 1640 2515 
Q 1447 2259 1447 1791 
Q 1447 1309 1634 1061 
Q 1822 813 2181 813 
Q 2531 813 2725 1069 
Q 2919 1325 2919 1791 
Q 2919 2259 2725 2515 
Q 2531 2772 2181 2772 
z
" transform="scale(0.015625)"/>
       </defs>
       <use xlink:href="#DejaVuSans-Bold-4c"/>
       <use xlink:href="#DejaVuSans-Bold-6f" x="63.720703"/>
       <use xlink:href="#DejaVuSans-Bold-67" x="132.421875"/>
       <use xlink:href="#DejaVuSans-Bold-69" x="204.003906"/>
       <use xlink:href="#DejaVuSans-Bold-63" x="238.28125"/>
      </g>
     </g>
    </g>
    <g id="xtick_2">
     <g id="line2d_2">
      <path d="M 495.882912 323.807883 
L 586.911662 43.650197 
" clip-path="url(#pd0c0349615)" style="fill: none; stroke: #b0b0b0; stroke-width: 0.8; stroke-linecap: square"/>
     </g>
     <g id="text_2">
      <!-- Natural Language -->
      <g style="fill: #e377c2" transform="translate(591.2379 23.916562) scale(0.22 -0.22)">
       <defs>
        <path id="DejaVuSans-Bold-4e" d="M 588 4666 
L 1931 4666 
L 3628 1466 
L 3628 4666 
L 4769 4666 
L 4769 0 
L 3425 0 
L 1728 3200 
L 1728 0 
L 588 0 
L 588 4666 
z
" transform="scale(0.015625)"/>
        <path id="DejaVuSans-Bold-75" d="M 500 1363 
L 500 3500 
L 1625 3500 
L 1625 3150 
Q 1625 2866 1622 2436 
Q 1619 2006 1619 1863 
Q 1619 1441 1641 1255 
Q 1663 1069 1716 984 
Q 1784 875 1895 815 
Q 2006 756 2150 756 
Q 2500 756 2700 1025 
Q 2900 1294 2900 1772 
L 2900 3500 
L 4019 3500 
L 4019 0 
L 2900 0 
L 2900 506 
Q 2647 200 2364 54 
Q 2081 -91 1741 -91 
Q 1134 -91 817 281 
Q 500 653 500 1363 
z
" transform="scale(0.015625)"/>
        <path id="DejaVuSans-Bold-72" d="M 3138 2547 
Q 2991 2616 2845 2648 
Q 2700 2681 2553 2681 
Q 2122 2681 1889 2404 
Q 1656 2128 1656 1613 
L 1656 0 
L 538 0 
L 538 3500 
L 1656 3500 
L 1656 2925 
Q 1872 3269 2151 3426 
Q 2431 3584 2822 3584 
Q 2878 3584 2943 3579 
Q 3009 3575 3134 3559 
L 3138 2547 
z
" transform="scale(0.015625)"/>
        <path id="DejaVuSans-Bold-6c" d="M 538 4863 
L 1656 4863 
L 1656 0 
L 538 0 
L 538 4863 
z
" transform="scale(0.015625)"/>
       </defs>
       <use xlink:href="#DejaVuSans-Bold-4e"/>
       <use xlink:href="#DejaVuSans-Bold-61" x="83.691406"/>
       <use xlink:href="#DejaVuSans-Bold-74" x="151.171875"/>
       <use xlink:href="#DejaVuSans-Bold-75" x="198.974609"/>
       <use xlink:href="#DejaVuSans-Bold-72" x="270.166016"/>
       <use xlink:href="#DejaVuSans-Bold-61" x="319.482422"/>
       <use xlink:href="#DejaVuSans-Bold-6c" x="386.962891"/>
       <use xlink:href="#DejaVuSans-Bold-20" x="421.240234"/>
       <use xlink:href="#DejaVuSans-Bold-4c" x="456.054688"/>
       <use xlink:href="#DejaVuSans-Bold-61" x="519.775391"/>
       <use xlink:href="#DejaVuSans-Bold-6e" x="587.255859"/>
       <use xlink:href="#DejaVuSans-Bold-67" x="658.447266"/>
       <use xlink:href="#DejaVuSans-Bold-75" x="730.029297"/>
       <use xlink:href="#DejaVuSans-Bold-61" x="801.220703"/>
       <use xlink:href="#DejaVuSans-Bold-67" x="868.701172"/>
       <use xlink:href="#DejaVuSans-Bold-65" x="940.283203"/>
      </g>
      <!-- Understanding -->
      <g style="fill: #e377c2" transform="translate(591.2379 48.723625) scale(0.22 -0.22)">
       <defs>
        <path id="DejaVuSans-Bold-55" d="M 588 4666 
L 1791 4666 
L 1791 1869 
Q 1791 1291 1980 1042 
Q 2169 794 2597 794 
Q 3028 794 3217 1042 
Q 3406 1291 3406 1869 
L 3406 4666 
L 4609 4666 
L 4609 1869 
Q 4609 878 4112 393 
Q 3616 -91 2597 -91 
Q 1581 -91 1084 393 
Q 588 878 588 1869 
L 588 4666 
z
" transform="scale(0.015625)"/>
       </defs>
       <use xlink:href="#DejaVuSans-Bold-55"/>
       <use xlink:href="#DejaVuSans-Bold-6e" x="81.201172"/>
       <use xlink:href="#DejaVuSans-Bold-64" x="152.392578"/>
       <use xlink:href="#DejaVuSans-Bold-65" x="223.974609"/>
       <use xlink:href="#DejaVuSans-Bold-72" x="291.796875"/>
       <use xlink:href="#DejaVuSans-Bold-73" x="341.113281"/>
       <use xlink:href="#DejaVuSans-Bold-74" x="400.634766"/>
       <use xlink:href="#DejaVuSans-Bold-61" x="448.4375"/>
       <use xlink:href="#DejaVuSans-Bold-6e" x="515.917969"/>
       <use xlink:href="#DejaVuSans-Bold-64" x="587.109375"/>
       <use xlink:href="#DejaVuSans-Bold-69" x="658.691406"/>
       <use xlink:href="#DejaVuSans-Bold-6e" x="692.96875"/>
       <use xlink:href="#DejaVuSans-Bold-67" x="764.160156"/>
      </g>
     </g>
    </g>
    <g id="xtick_3">
     <g id="line2d_3">
      <path d="M 495.882912 323.807883 
L 257.56655 150.660911 
" clip-path="url(#pd0c0349615)" style="fill: none; stroke: #b0b0b0; stroke-width: 0.8; stroke-linecap: square"/>
     </g>
     <g id="text_3">
      <!-- Use of -->
      <g style="fill: #7f7f7f" transform="translate(168.016563 136.099011) scale(0.22 -0.22)">
       <defs>
        <path id="DejaVuSans-Bold-66" d="M 2841 4863 
L 2841 4128 
L 2222 4128 
Q 1984 4128 1890 4042 
Q 1797 3956 1797 3744 
L 1797 3500 
L 2753 3500 
L 2753 2700 
L 1797 2700 
L 1797 0 
L 678 0 
L 678 2700 
L 122 2700 
L 122 3500 
L 678 3500 
L 678 3744 
Q 678 4316 997 4589 
Q 1316 4863 1984 4863 
L 2841 4863 
z
" transform="scale(0.015625)"/>
       </defs>
       <use xlink:href="#DejaVuSans-Bold-55"/>
       <use xlink:href="#DejaVuSans-Bold-73" x="81.201172"/>
       <use xlink:href="#DejaVuSans-Bold-65" x="140.722656"/>
       <use xlink:href="#DejaVuSans-Bold-20" x="208.544922"/>
       <use xlink:href="#DejaVuSans-Bold-6f" x="243.359375"/>
       <use xlink:href="#DejaVuSans-Bold-66" x="312.060547"/>
      </g>
      <!-- World Knowledge -->
      <g style="fill: #7f7f7f" transform="translate(28.832188 160.734199) scale(0.22 -0.22)">
       <defs>
        <path id="DejaVuSans-Bold-57" d="M 191 4666 
L 1344 4666 
L 2150 1275 
L 2950 4666 
L 4109 4666 
L 4909 1275 
L 5716 4666 
L 6859 4666 
L 5759 0 
L 4372 0 
L 3525 3547 
L 2688 0 
L 1300 0 
L 191 4666 
z
" transform="scale(0.015625)"/>
        <path id="DejaVuSans-Bold-4b" d="M 588 4666 
L 1791 4666 
L 1791 2963 
L 3525 4666 
L 4922 4666 
L 2675 2456 
L 5153 0 
L 3647 0 
L 1791 1838 
L 1791 0 
L 588 0 
L 588 4666 
z
" transform="scale(0.015625)"/>
        <path id="DejaVuSans-Bold-77" d="M 225 3500 
L 1313 3500 
L 1900 1088 
L 2491 3500 
L 3425 3500 
L 4013 1113 
L 4603 3500 
L 5691 3500 
L 4769 0 
L 3547 0 
L 2956 2406 
L 2369 0 
L 1147 0 
L 225 3500 
z
" transform="scale(0.015625)"/>
       </defs>
       <use xlink:href="#DejaVuSans-Bold-57"/>
       <use xlink:href="#DejaVuSans-Bold-6f" x="106.677734"/>
       <use xlink:href="#DejaVuSans-Bold-72" x="175.378906"/>
       <use xlink:href="#DejaVuSans-Bold-6c" x="224.695312"/>
       <use xlink:href="#DejaVuSans-Bold-64" x="258.972656"/>
       <use xlink:href="#DejaVuSans-Bold-20" x="330.554688"/>
       <use xlink:href="#DejaVuSans-Bold-4b" x="365.369141"/>
       <use xlink:href="#DejaVuSans-Bold-6e" x="442.859375"/>
       <use xlink:href="#DejaVuSans-Bold-6f" x="514.050781"/>
       <use xlink:href="#DejaVuSans-Bold-77" x="582.751953"/>
       <use xlink:href="#DejaVuSans-Bold-6c" x="675.134766"/>
       <use xlink:href="#DejaVuSans-Bold-65" x="709.412109"/>
       <use xlink:href="#DejaVuSans-Bold-64" x="777.234375"/>
       <use xlink:href="#DejaVuSans-Bold-67" x="848.816406"/>
       <use xlink:href="#DejaVuSans-Bold-65" x="920.398438"/>
      </g>
     </g>
    </g>
    <g id="xtick_4">
     <g id="line2d_4">
      <path d="M 495.882912 323.807883 
L 257.56655 496.954855 
" clip-path="url(#pd0c0349615)" style="fill: none; stroke: #b0b0b0; stroke-width: 0.8; stroke-linecap: square"/>
     </g>
     <g id="text_4">
      <!-- Graduate Level -->
      <g style="fill: #bcbd22" transform="translate(57.390937 498.850943) scale(0.22 -0.22)">
       <defs>
        <path id="DejaVuSans-Bold-47" d="M 4781 347 
Q 4331 128 3847 18 
Q 3363 -91 2847 -91 
Q 1681 -91 1000 561 
Q 319 1213 319 2328 
Q 319 3456 1012 4103 
Q 1706 4750 2913 4750 
Q 3378 4750 3804 4662 
Q 4231 4575 4609 4403 
L 4609 3438 
Q 4219 3659 3833 3768 
Q 3447 3878 3059 3878 
Q 2341 3878 1952 3476 
Q 1563 3075 1563 2328 
Q 1563 1588 1938 1184 
Q 2313 781 3003 781 
Q 3191 781 3352 804 
Q 3513 828 3641 878 
L 3641 1784 
L 2906 1784 
L 2906 2591 
L 4781 2591 
L 4781 347 
z
" transform="scale(0.015625)"/>
        <path id="DejaVuSans-Bold-76" d="M 97 3500 
L 1216 3500 
L 2088 1081 
L 2956 3500 
L 4078 3500 
L 2700 0 
L 1472 0 
L 97 3500 
z
" transform="scale(0.015625)"/>
       </defs>
       <use xlink:href="#DejaVuSans-Bold-47"/>
       <use xlink:href="#DejaVuSans-Bold-72" x="82.080078"/>
       <use xlink:href="#DejaVuSans-Bold-61" x="131.396484"/>
       <use xlink:href="#DejaVuSans-Bold-64" x="198.876953"/>
       <use xlink:href="#DejaVuSans-Bold-75" x="270.458984"/>
       <use xlink:href="#DejaVuSans-Bold-61" x="341.650391"/>
       <use xlink:href="#DejaVuSans-Bold-74" x="409.130859"/>
       <use xlink:href="#DejaVuSans-Bold-65" x="456.933594"/>
       <use xlink:href="#DejaVuSans-Bold-20" x="524.755859"/>
       <use xlink:href="#DejaVuSans-Bold-4c" x="559.570312"/>
       <use xlink:href="#DejaVuSans-Bold-65" x="623.291016"/>
       <use xlink:href="#DejaVuSans-Bold-76" x="691.113281"/>
       <use xlink:href="#DejaVuSans-Bold-65" x="756.298828"/>
       <use xlink:href="#DejaVuSans-Bold-6c" x="824.121094"/>
      </g>
      <!-- Domain Knowledge -->
      <g style="fill: #bcbd22" transform="translate(7.2 523.48613) scale(0.22 -0.22)">
       <defs>
        <path id="DejaVuSans-Bold-44" d="M 1791 3756 
L 1791 909 
L 2222 909 
Q 2959 909 3348 1275 
Q 3738 1641 3738 2338 
Q 3738 3031 3350 3393 
Q 2963 3756 2222 3756 
L 1791 3756 
z
M 588 4666 
L 1856 4666 
Q 2919 4666 3439 4514 
Q 3959 4363 4331 4000 
Q 4659 3684 4818 3271 
Q 4978 2859 4978 2338 
Q 4978 1809 4818 1395 
Q 4659 981 4331 666 
Q 3956 303 3431 151 
Q 2906 0 1856 0 
L 588 0 
L 588 4666 
z
" transform="scale(0.015625)"/>
       </defs>
       <use xlink:href="#DejaVuSans-Bold-44"/>
       <use xlink:href="#DejaVuSans-Bold-6f" x="83.007812"/>
       <use xlink:href="#DejaVuSans-Bold-6d" x="151.708984"/>
       <use xlink:href="#DejaVuSans-Bold-61" x="255.908203"/>
       <use xlink:href="#DejaVuSans-Bold-69" x="323.388672"/>
       <use xlink:href="#DejaVuSans-Bold-6e" x="357.666016"/>
       <use xlink:href="#DejaVuSans-Bold-20" x="428.857422"/>
       <use xlink:href="#DejaVuSans-Bold-4b" x="463.671875"/>
       <use xlink:href="#DejaVuSans-Bold-6e" x="541.162109"/>
       <use xlink:href="#DejaVuSans-Bold-6f" x="612.353516"/>
       <use xlink:href="#DejaVuSans-Bold-77" x="681.054688"/>
       <use xlink:href="#DejaVuSans-Bold-6c" x="773.4375"/>
       <use xlink:href="#DejaVuSans-Bold-65" x="807.714844"/>
       <use xlink:href="#DejaVuSans-Bold-64" x="875.537109"/>
       <use xlink:href="#DejaVuSans-Bold-67" x="947.119141"/>
       <use xlink:href="#DejaVuSans-Bold-65" x="1018.701172"/>
      </g>
     </g>
    </g>
    <g id="xtick_5">
     <g id="line2d_5">
      <path d="M 495.882912 323.807883 
L 586.911662 603.965569 
" clip-path="url(#pd0c0349615)" style="fill: none; stroke: #b0b0b0; stroke-width: 0.8; stroke-linecap: square"/>
     </g>
     <g id="text_5">
      <!-- Multistep Soft -->
      <g style="fill: #17becf" transform="translate(591.2379 610.947454) scale(0.22 -0.22)">
       <defs>
        <path id="DejaVuSans-Bold-70" d="M 1656 506 
L 1656 -1331 
L 538 -1331 
L 538 3500 
L 1656 3500 
L 1656 2988 
Q 1888 3294 2169 3439 
Q 2450 3584 2816 3584 
Q 3463 3584 3878 3070 
Q 4294 2556 4294 1747 
Q 4294 938 3878 423 
Q 3463 -91 2816 -91 
Q 2450 -91 2169 54 
Q 1888 200 1656 506 
z
M 2400 2772 
Q 2041 2772 1848 2508 
Q 1656 2244 1656 1747 
Q 1656 1250 1848 986 
Q 2041 722 2400 722 
Q 2759 722 2948 984 
Q 3138 1247 3138 1747 
Q 3138 2247 2948 2509 
Q 2759 2772 2400 2772 
z
" transform="scale(0.015625)"/>
        <path id="DejaVuSans-Bold-53" d="M 3834 4519 
L 3834 3531 
Q 3450 3703 3084 3790 
Q 2719 3878 2394 3878 
Q 1963 3878 1756 3759 
Q 1550 3641 1550 3391 
Q 1550 3203 1689 3098 
Q 1828 2994 2194 2919 
L 2706 2816 
Q 3484 2659 3812 2340 
Q 4141 2022 4141 1434 
Q 4141 663 3683 286 
Q 3225 -91 2284 -91 
Q 1841 -91 1394 -6 
Q 947 78 500 244 
L 500 1259 
Q 947 1022 1364 901 
Q 1781 781 2169 781 
Q 2563 781 2772 912 
Q 2981 1044 2981 1288 
Q 2981 1506 2839 1625 
Q 2697 1744 2272 1838 
L 1806 1941 
Q 1106 2091 782 2419 
Q 459 2747 459 3303 
Q 459 4000 909 4375 
Q 1359 4750 2203 4750 
Q 2588 4750 2994 4692 
Q 3400 4634 3834 4519 
z
" transform="scale(0.015625)"/>
       </defs>
       <use xlink:href="#DejaVuSans-Bold-4d"/>
       <use xlink:href="#DejaVuSans-Bold-75" x="99.511719"/>
       <use xlink:href="#DejaVuSans-Bold-6c" x="170.703125"/>
       <use xlink:href="#DejaVuSans-Bold-74" x="204.980469"/>
       <use xlink:href="#DejaVuSans-Bold-69" x="252.783203"/>
       <use xlink:href="#DejaVuSans-Bold-73" x="287.060547"/>
       <use xlink:href="#DejaVuSans-Bold-74" x="346.582031"/>
       <use xlink:href="#DejaVuSans-Bold-65" x="394.384766"/>
       <use xlink:href="#DejaVuSans-Bold-70" x="462.207031"/>
       <use xlink:href="#DejaVuSans-Bold-20" x="533.789062"/>
       <use xlink:href="#DejaVuSans-Bold-53" x="568.603516"/>
       <use xlink:href="#DejaVuSans-Bold-6f" x="640.625"/>
       <use xlink:href="#DejaVuSans-Bold-66" x="709.326172"/>
       <use xlink:href="#DejaVuSans-Bold-74" x="752.832031"/>
      </g>
      <!-- Reasoning -->
      <g style="fill: #17becf" transform="translate(591.2379 635.582642) scale(0.22 -0.22)">
       <defs>
        <path id="DejaVuSans-Bold-52" d="M 2297 2597 
Q 2675 2597 2839 2737 
Q 3003 2878 3003 3200 
Q 3003 3519 2839 3656 
Q 2675 3794 2297 3794 
L 1791 3794 
L 1791 2597 
L 2297 2597 
z
M 1791 1766 
L 1791 0 
L 588 0 
L 588 4666 
L 2425 4666 
Q 3347 4666 3776 4356 
Q 4206 4047 4206 3378 
Q 4206 2916 3982 2619 
Q 3759 2322 3309 2181 
Q 3556 2125 3751 1926 
Q 3947 1728 4147 1325 
L 4800 0 
L 3519 0 
L 2950 1159 
Q 2778 1509 2601 1637 
Q 2425 1766 2131 1766 
L 1791 1766 
z
" transform="scale(0.015625)"/>
       </defs>
       <use xlink:href="#DejaVuSans-Bold-52"/>
       <use xlink:href="#DejaVuSans-Bold-65" x="77.001953"/>
       <use xlink:href="#DejaVuSans-Bold-61" x="144.824219"/>
       <use xlink:href="#DejaVuSans-Bold-73" x="212.304688"/>
       <use xlink:href="#DejaVuSans-Bold-6f" x="271.826172"/>
       <use xlink:href="#DejaVuSans-Bold-6e" x="340.527344"/>
       <use xlink:href="#DejaVuSans-Bold-69" x="411.71875"/>
       <use xlink:href="#DejaVuSans-Bold-6e" x="445.996094"/>
       <use xlink:href="#DejaVuSans-Bold-67" x="517.1875"/>
      </g>
     </g>
    </g>
   </g>
   <g id="matplotlib.axis_2">
    <g id="ytick_1">
     <g id="line2d_6">
      <path d="M 569.526718 323.807883 
C 569.526718 314.137067 567.621778 304.560288 563.920917 295.625619 
C 560.220056 286.69095 554.795246 278.572148 547.956947 271.733849 
C 541.118647 264.895549 532.999846 259.470739 524.065177 255.769878 
C 515.130508 252.069017 505.553728 250.164077 495.882912 250.164077 
C 486.212096 250.164077 476.635317 252.069017 467.700648 255.769878 
C 458.765979 259.470739 450.647177 264.895549 443.808878 271.733849 
C 436.970578 278.572148 431.545768 286.69095 427.844907 295.625619 
C 424.144046 304.560288 422.239106 314.137067 422.239106 323.807883 
C 422.239106 333.478699 424.144046 343.055479 427.844907 351.990148 
C 431.545768 360.924817 436.970578 369.043618 443.808878 375.881918 
C 450.647177 382.720217 458.765979 388.145027 467.700648 391.845888 
C 476.635317 395.546749 486.212096 397.451689 495.882912 397.451689 
C 505.553728 397.451689 515.130508 395.546749 524.065177 391.845888 
C 532.999846 388.145027 541.118647 382.720217 547.956947 375.881918 
C 554.795246 369.043618 560.220056 360.924817 563.920917 351.990148 
C 567.621778 343.055479 569.526718 333.478699 569.526718 323.807883 
" clip-path="url(#pd0c0349615)" style="fill: none; stroke: #b0b0b0; stroke-width: 0.8; stroke-linecap: square"/>
     </g>
    </g>
    <g id="ytick_2">
     <g id="line2d_7">
      <path d="M 643.170524 323.807883 
C 643.170524 304.466251 639.360644 285.312692 631.958922 267.443354 
C 624.5572 249.574017 613.70758 233.336413 600.030981 219.659814 
C 586.354382 205.983215 570.116779 195.133596 552.247441 187.731873 
C 534.378103 180.330151 515.224544 176.520272 495.882912 176.520272 
C 476.54128 176.520272 457.387721 180.330151 439.518384 187.731873 
C 421.649046 195.133596 405.411442 205.983215 391.734843 219.659814 
C 378.058244 233.336413 367.208625 249.574017 359.806902 267.443354 
C 352.40518 285.312692 348.595301 304.466251 348.595301 323.807883 
C 348.595301 343.149515 352.40518 362.303074 359.806902 380.172412 
C 367.208625 398.04175 378.058244 414.279353 391.734843 427.955952 
C 405.411442 441.632551 421.649046 452.482171 439.518384 459.883893 
C 457.387721 467.285615 476.54128 471.095495 495.882912 471.095495 
C 515.224544 471.095495 534.378103 467.285615 552.247441 459.883893 
C 570.116779 452.482171 586.354382 441.632551 600.030981 427.955952 
C 613.70758 414.279353 624.5572 398.04175 631.958922 380.172412 
C 639.360644 362.303074 643.170524 343.149515 643.170524 323.807883 
" clip-path="url(#pd0c0349615)" style="fill: none; stroke: #b0b0b0; stroke-width: 0.8; stroke-linecap: square"/>
     </g>
    </g>
    <g id="ytick_3">
     <g id="line2d_8">
      <path d="M 716.81433 323.807883 
C 716.81433 294.795435 711.09951 266.065097 699.996927 239.26109 
C 688.894344 212.457083 672.619915 188.100678 652.105016 167.58578 
C 631.590117 147.070881 607.233712 130.796452 580.429706 119.693868 
C 553.625699 108.591285 524.89536 102.876466 495.882912 102.876466 
C 466.870464 102.876466 438.140126 108.591285 411.336119 119.693868 
C 384.532112 130.796452 360.175707 147.070881 339.660809 167.58578 
C 319.14591 188.100678 302.871481 212.457083 291.768898 239.26109 
C 280.666314 266.065097 274.951495 294.795435 274.951495 323.807883 
C 274.951495 352.820331 280.666314 381.55067 291.768898 408.354676 
C 302.871481 435.158683 319.14591 459.515088 339.660809 480.029987 
C 360.175707 500.544886 384.532112 516.819315 411.336119 527.921898 
C 438.140126 539.024481 466.870464 544.739301 495.882912 544.739301 
C 524.89536 544.739301 553.625699 539.024481 580.429706 527.921898 
C 607.233712 516.819315 631.590117 500.544886 652.105016 480.029987 
C 672.619915 459.515088 688.894344 435.158683 699.996927 408.354676 
C 711.09951 381.55067 716.81433 352.820331 716.81433 323.807883 
" clip-path="url(#pd0c0349615)" style="fill: none; stroke: #b0b0b0; stroke-width: 0.8; stroke-linecap: square"/>
     </g>
    </g>
    <g id="ytick_4">
     <g id="line2d_9">
      <path d="M 790.458136 323.807883 
C 790.458136 285.124619 782.838376 246.817501 768.034932 211.078826 
C 753.231488 175.34015 731.532249 142.864943 704.17905 115.511745 
C 676.825852 88.158547 644.350646 66.459308 608.61197 51.655864 
C 572.873294 36.852419 534.566176 29.23266 495.882912 29.23266 
C 457.199648 29.23266 418.89253 36.852419 383.153855 51.655864 
C 347.415179 66.459308 314.939972 88.158547 287.586774 115.511745 
C 260.233576 142.864943 238.534337 175.34015 223.730893 211.078826 
C 208.927448 246.817501 201.307689 285.124619 201.307689 323.807883 
C 201.307689 362.491147 208.927448 400.798265 223.730893 436.536941 
C 238.534337 472.275617 260.233576 504.750823 287.586774 532.104021 
C 314.939972 559.45722 347.415179 581.156459 383.153855 595.959903 
C 418.89253 610.763347 457.199648 618.383107 495.882912 618.383107 
C 534.566176 618.383107 572.873294 610.763347 608.61197 595.959903 
C 644.350646 581.156459 676.825852 559.45722 704.17905 532.104021 
C 731.532249 504.750823 753.231488 472.275617 768.034932 436.536941 
C 782.838376 400.798265 790.458136 362.491147 790.458136 323.807883 
" clip-path="url(#pd0c0349615)" style="fill: none; stroke: #b0b0b0; stroke-width: 0.8; stroke-linecap: square"/>
     </g>
    </g>
   </g>
   <g id="line2d_10">
    <path d="M 687.746884 323.807883 
L 568.402483 100.615594 
L 307.612986 187.021775 
L 334.966172 440.720738 
L 579.7953 582.063658 
L 687.746884 323.807883 
" clip-path="url(#pd0c0349615)" style="fill: none; stroke: #1f77b4; stroke-opacity: 0.8; stroke-width: 3; stroke-linecap: square"/>
   </g>
   <g id="line2d_11">
    <path d="M 699.247424 323.807883 
L 551.713879 151.977836 
L 302.846659 183.558836 
L 345.605296 432.990963 
L 576.386463 571.572337 
L 699.247424 323.807883 
" clip-path="url(#pd0c0349615)" style="fill: none; stroke: #ff7f0e; stroke-opacity: 0.8; stroke-width: 3; stroke-linecap: square"/>
   </g>
   <g id="line2d_12">
    <path d="M 668.75418 323.807883 
L 535.935562 200.538502 
L 325.883907 200.296377 
L 350.924857 429.126075 
L 580.027613 582.778644 
L 668.75418 323.807883 
" clip-path="url(#pd0c0349615)" style="fill: none; stroke: #2ca02c; stroke-opacity: 0.8; stroke-width: 3; stroke-linecap: square"/>
   </g>
   <g id="line2d_13">
    <path d="M 674.28251 323.807883 
L 559.299608 128.631362 
L 317.145641 193.947654 
L 330.976501 443.619404 
L 579.949385 582.537884 
L 674.28251 323.807883 
" clip-path="url(#pd0c0349615)" style="fill: none; stroke: #d62728; stroke-opacity: 0.8; stroke-width: 3; stroke-linecap: square"/>
   </g>
   <g id="patch_3">
    <path d="M 790.458136 323.807883 
C 790.458136 285.124619 782.838376 246.817501 768.034932 211.078826 
C 753.231488 175.34015 731.532249 142.864943 704.17905 115.511745 
C 676.825852 88.158547 644.350646 66.459308 608.61197 51.655864 
C 572.873294 36.852419 534.566176 29.23266 495.882912 29.23266 
C 457.199648 29.23266 418.89253 36.852419 383.153855 51.655864 
C 347.415179 66.459308 314.939972 88.158547 287.586774 115.511745 
C 260.233576 142.864943 238.534337 175.34015 223.730893 211.078826 
C 208.927448 246.817501 201.307689 285.124619 201.307689 323.807883 
C 201.307689 362.491147 208.927448 400.798265 223.730893 436.536941 
C 238.534337 472.275617 260.233576 504.750823 287.586774 532.104021 
C 314.939972 559.45722 347.415179 581.156459 383.153855 595.959903 
C 418.89253 610.763347 457.199648 618.383107 495.882912 618.383107 
C 534.566176 618.383107 572.873294 610.763347 608.61197 595.959903 
C 644.350646 581.156459 676.825852 559.45722 704.17905 532.104021 
C 731.532249 504.750823 753.231488 472.275617 768.034932 436.536941 
C 782.838376 400.798265 790.458136 362.491147 790.458136 323.807883 
" style="fill: none; stroke: #000000; stroke-width: 0.8; stroke-linejoin: miter; stroke-linecap: square"/>
   </g>
   <g id="text_6">
    <!-- 0.1 -->
    <g transform="translate(534.171931 337.230621) scale(0.22 -0.22)">
     <defs>
      <path id="DejaVuSans-30" d="M 2034 4250 
Q 1547 4250 1301 3770 
Q 1056 3291 1056 2328 
Q 1056 1369 1301 889 
Q 1547 409 2034 409 
Q 2525 409 2770 889 
Q 3016 1369 3016 2328 
Q 3016 3291 2770 3770 
Q 2525 4250 2034 4250 
z
M 2034 4750 
Q 2819 4750 3233 4129 
Q 3647 3509 3647 2328 
Q 3647 1150 3233 529 
Q 2819 -91 2034 -91 
Q 1250 -91 836 529 
Q 422 1150 422 2328 
Q 422 3509 836 4129 
Q 1250 4750 2034 4750 
z
" transform="scale(0.015625)"/>
      <path id="DejaVuSans-2e" d="M 684 794 
L 1344 794 
L 1344 0 
L 684 0 
L 684 794 
z
" transform="scale(0.015625)"/>
      <path id="DejaVuSans-31" d="M 794 531 
L 1825 531 
L 1825 4091 
L 703 3866 
L 703 4441 
L 1819 4666 
L 2450 4666 
L 2450 531 
L 3481 531 
L 3481 0 
L 794 0 
L 794 531 
z
" transform="scale(0.015625)"/>
     </defs>
     <use xlink:href="#DejaVuSans-30"/>
     <use xlink:href="#DejaVuSans-2e" x="63.623047"/>
     <use xlink:href="#DejaVuSans-31" x="95.410156"/>
    </g>
   </g>
   <g id="text_7">
    <!-- 0.2 -->
    <g transform="translate(607.447824 344.582734) scale(0.22 -0.22)">
     <defs>
      <path id="DejaVuSans-32" d="M 1228 531 
L 3431 531 
L 3431 0 
L 469 0 
L 469 531 
Q 828 903 1448 1529 
Q 2069 2156 2228 2338 
Q 2531 2678 2651 2914 
Q 2772 3150 2772 3378 
Q 2772 3750 2511 3984 
Q 2250 4219 1831 4219 
Q 1534 4219 1204 4116 
Q 875 4013 500 3803 
L 500 4441 
Q 881 4594 1212 4672 
Q 1544 4750 1819 4750 
Q 2544 4750 2975 4387 
Q 3406 4025 3406 3419 
Q 3406 3131 3298 2873 
Q 3191 2616 2906 2266 
Q 2828 2175 2409 1742 
Q 1991 1309 1228 531 
z
" transform="scale(0.015625)"/>
     </defs>
     <use xlink:href="#DejaVuSans-30"/>
     <use xlink:href="#DejaVuSans-2e" x="63.623047"/>
     <use xlink:href="#DejaVuSans-32" x="95.410156"/>
    </g>
   </g>
   <g id="text_8">
    <!-- 0.3 -->
    <g transform="translate(680.723718 351.934847) scale(0.22 -0.22)">
     <defs>
      <path id="DejaVuSans-33" d="M 2597 2516 
Q 3050 2419 3304 2112 
Q 3559 1806 3559 1356 
Q 3559 666 3084 287 
Q 2609 -91 1734 -91 
Q 1441 -91 1130 -33 
Q 819 25 488 141 
L 488 750 
Q 750 597 1062 519 
Q 1375 441 1716 441 
Q 2309 441 2620 675 
Q 2931 909 2931 1356 
Q 2931 1769 2642 2001 
Q 2353 2234 1838 2234 
L 1294 2234 
L 1294 2753 
L 1863 2753 
Q 2328 2753 2575 2939 
Q 2822 3125 2822 3475 
Q 2822 3834 2567 4026 
Q 2313 4219 1838 4219 
Q 1578 4219 1281 4162 
Q 984 4106 628 3988 
L 628 4550 
Q 988 4650 1302 4700 
Q 1616 4750 1894 4750 
Q 2613 4750 3031 4423 
Q 3450 4097 3450 3541 
Q 3450 3153 3228 2886 
Q 3006 2619 2597 2516 
z
" transform="scale(0.015625)"/>
     </defs>
     <use xlink:href="#DejaVuSans-30"/>
     <use xlink:href="#DejaVuSans-2e" x="63.623047"/>
     <use xlink:href="#DejaVuSans-33" x="95.410156"/>
    </g>
   </g>
   <g id="text_9">
    <!-- 0.4 -->
    <g transform="translate(753.999612 359.286959) scale(0.22 -0.22)">
     <defs>
      <path id="DejaVuSans-34" d="M 2419 4116 
L 825 1625 
L 2419 1625 
L 2419 4116 
z
M 2253 4666 
L 3047 4666 
L 3047 1625 
L 3713 1625 
L 3713 1100 
L 3047 1100 
L 3047 0 
L 2419 0 
L 2419 1100 
L 313 1100 
L 313 1709 
L 2253 4666 
z
" transform="scale(0.015625)"/>
     </defs>
     <use xlink:href="#DejaVuSans-30"/>
     <use xlink:href="#DejaVuSans-2e" x="63.623047"/>
     <use xlink:href="#DejaVuSans-34" x="95.410156"/>
    </g>
   </g>
  </g>
 </g>
 <defs>
  <clipPath id="pd0c0349615">
   <path d="M 790.458136 323.807883 
C 790.458136 285.124619 782.838376 246.817501 768.034932 211.078826 
C 753.231488 175.34015 731.532249 142.864943 704.17905 115.511745 
C 676.825852 88.158547 644.350646 66.459308 608.61197 51.655864 
C 572.873294 36.852419 534.566176 29.23266 495.882912 29.23266 
C 457.199648 29.23266 418.89253 36.852419 383.153855 51.655864 
C 347.415179 66.459308 314.939972 88.158547 287.586774 115.511745 
C 260.233576 142.864943 238.534337 175.34015 223.730893 211.078826 
C 208.927448 246.817501 201.307689 285.124619 201.307689 323.807883 
C 201.307689 362.491147 208.927448 400.798265 223.730893 436.536941 
C 238.534337 472.275617 260.233576 504.750823 287.586774 532.104021 
C 314.939972 559.45722 347.415179 581.156459 383.153855 595.959903 
C 418.89253 610.763347 457.199648 618.383107 495.882912 618.383107 
C 534.566176 618.383107 572.873294 610.763347 608.61197 595.959903 
C 644.350646 581.156459 676.825852 559.45722 704.17905 532.104021 
C 731.532249 504.750823 753.231488 472.275617 768.034932 436.536941 
C 782.838376 400.798265 790.458136 362.491147 790.458136 323.807883 
M 495.882912 323.807883 
C 495.882912 323.807883 495.882912 323.807883 495.882912 323.807883 
C 495.882912 323.807883 495.882912 323.807883 495.882912 323.807883 
C 495.882912 323.807883 495.882912 323.807883 495.882912 323.807883 
C 495.882912 323.807883 495.882912 323.807883 495.882912 323.807883 
C 495.882912 323.807883 495.882912 323.807883 495.882912 323.807883 
C 495.882912 323.807883 495.882912 323.807883 495.882912 323.807883 
C 495.882912 323.807883 495.882912 323.807883 495.882912 323.807883 
C 495.882912 323.807883 495.882912 323.807883 495.882912 323.807883 
C 495.882912 323.807883 495.882912 323.807883 495.882912 323.807883 
C 495.882912 323.807883 495.882912 323.807883 495.882912 323.807883 
C 495.882912 323.807883 495.882912 323.807883 495.882912 323.807883 
C 495.882912 323.807883 495.882912 323.807883 495.882912 323.807883 
C 495.882912 323.807883 495.882912 323.807883 495.882912 323.807883 
C 495.882912 323.807883 495.882912 323.807883 495.882912 323.807883 
C 495.882912 323.807883 495.882912 323.807883 495.882912 323.807883 
C 495.882912 323.807883 495.882912 323.807883 495.882912 323.807883 
z
"/>
  </clipPath>
 </defs>
</svg>
